<svg xmlns="http://www.w3.org/2000/svg" viewBox="0 0 450.04 303.64"><defs><style>.cls-1{fill:#1a2e35;}.cls-15,.cls-2,.cls-4,.cls-7,.cls-9{fill:#fff;}.cls-11,.cls-13,.cls-18,.cls-21,.cls-22,.cls-26,.cls-29,.cls-3,.cls-31,.cls-33,.cls-35,.cls-37,.cls-38,.cls-44,.cls-6{fill:none;}.cls-3,.cls-4{stroke:#fff;}.cls-11,.cls-12,.cls-13,.cls-15,.cls-18,.cls-21,.cls-22,.cls-26,.cls-29,.cls-3,.cls-31,.cls-33,.cls-35,.cls-37,.cls-38,.cls-4,.cls-43,.cls-44,.cls-6,.cls-7,.cls-9{stroke-miterlimit:10;}.cls-5{fill:#ee7560;}.cls-6{stroke:#ee7560;}.cls-7{stroke:#ee715a;}.cls-8{fill:#ee715a;}.cls-9{stroke:#7b7b7b;}.cls-10{fill:#375c65;}.cls-11{stroke:#000;}.cls-12,.cls-14{fill:#1d1d1b;}.cls-12,.cls-13,.cls-15{stroke:#1d1d1b;}.cls-16{fill:#e1e1e1;}.cls-17{fill:#ebebeb;}.cls-18{stroke:#182d36;}.cls-18,.cls-26,.cls-29,.cls-31,.cls-35{stroke-width:0.25px;}.cls-19{fill:#355a64;}.cls-20{fill:#ee7260;}.cls-21{stroke:#c55843;}.cls-22{stroke:#afb0af;}.cls-23{fill:#f6f6f6;}.cls-24{fill:#e3e2e2;}.cls-25{fill:#172f35;}.cls-26{stroke:#e1e1e1;}.cls-27,.cls-43{fill:#f8bdab;}.cls-28{fill:#271917;}.cls-29,.cls-33{stroke:#271917;}.cls-30{fill:#32211b;}.cls-31{stroke:#32211b;}.cls-32{fill:#cf9c89;}.cls-33,.cls-37,.cls-38,.cls-43,.cls-44{stroke-width:0.5px;}.cls-34{fill:#ea987b;}.cls-35{stroke:#dda38e;}.cls-36{fill:#ee725e;}.cls-37{stroke:#f6ae94;}.cls-38{stroke:#d0563a;}.cls-39{fill:#d0563a;}.cls-40{fill:#ef785d;}.cls-41{fill:#f7bbad;}.cls-42{fill:#495b5e;}.cls-43,.cls-44{stroke:#f0ae97;}.cls-45{fill:#385b65;}</style></defs><g id="видео"><rect class="cls-1" x="19.74" y="58.2" width="149.62" height="92.43" rx="5.45"/><circle class="cls-2" cx="30.4" cy="69.88" r="3.26"/><line class="cls-3" x1="37.11" y1="69.88" x2="104.51" y2="69.88"/><polygon class="cls-3" points="141.79 71.61 141.79 66.88 145.11 66.88 145.11 71.61 143.45 69.25 141.79 71.61"/><polygon class="cls-4" points="148.3 67.65 150.09 69.25 150.09 71.61 153.79 67.65 148.3 67.65"/><circle class="cls-3" cx="159.09" cy="69.24" r="2.36"/><polyline class="cls-3" points="159.09 68.42 159.09 69.25 160.04 69.25"/><circle class="cls-5" cx="94.49" cy="105.88" r="11.55"/><polygon class="cls-2" points="91.36 101.73 91.36 109.39 98.51 105.88 91.36 101.73"/><line class="cls-6" x1="32.51" y1="139.52" x2="67.87" y2="139.52"/><circle class="cls-5" cx="69.6" cy="139.46" r="1.72"/><line class="cls-3" x1="71.32" y1="139.46" x2="149.19" y2="139.52"/><line class="cls-3" x1="151.23" y1="139.46" x2="155.57" y2="139.46"/><line class="cls-3" x1="27.15" y1="139.46" x2="31.11" y2="139.52"/><polyline class="cls-3" points="159.32 138.12 157.45 138.12 157.45 139.46"/><polyline class="cls-3" points="157.45 140.16 157.45 141.35 159.32 141.35"/><polyline class="cls-3" points="160.34 138.12 161.62 138.12 161.62 139.49"/><polyline class="cls-3" points="161.62 140.16 161.62 141.69 160.34 141.69"/></g><g id="красный_плей" data-name="красный плей"><rect class="cls-7" x="168.51" y="0.5" width="57.04" height="41.87" rx="4.34"/><polygon class="cls-8" points="192.68 14.12 192.68 30.29 206.47 22.2 192.68 14.12"/></g><g id="имг"><rect class="cls-9" x="280.17" y="14.41" width="114.64" height="70.47" rx="6.83"/><path class="cls-10" d="M280.81,64.2S301,38.16,310.94,40s25.4,23.1,25.4,23.1-.13,1.41,3.7.13c0,0,17.62-19.4,28.47-21.06S394,64.2,394,64.2V78.65s.12,3.3-4,6.23H286.13a7.72,7.72,0,0,1-5.32-4.72Z"/><polygon class="cls-11" points="373.36 24.72 373.36 20.7 376.19 20.7 376.19 24.72 374.77 22.71 373.36 24.72"/><polygon class="cls-12" points="378.9 21.36 380.42 22.71 380.42 24.72 383.57 21.36 378.9 21.36"/><circle class="cls-13" cx="388.07" cy="22.71" r="2.01"/><polyline class="cls-13" points="388.07 22.01 388.07 22.71 388.89 22.71"/><circle class="cls-14" cx="288.43" cy="23.73" r="2.29"/><line class="cls-15" x1="293.73" y1="23.73" x2="344.06" y2="23.73"/><line class="cls-6" x1="290.72" y1="76.93" x2="317.28" y2="76.93"/><circle class="cls-5" cx="318.89" cy="76.93" r="1.72"/><line class="cls-15" x1="320.62" y1="76.93" x2="382.81" y2="76.93"/><polyline class="cls-13" points="387.38 74.42 385.51 74.42 385.51 75.75"/><polyline class="cls-13" points="385.51 76.46 385.51 77.65 387.38 77.65"/><polyline class="cls-13" points="388.4 74.42 389.68 74.42 389.68 75.79"/><polyline class="cls-13" points="389.68 76.46 389.68 77.99 388.4 77.99"/><circle class="cls-10" cx="338.96" cy="39.24" r="7.85"/></g><g id="серое_видео" data-name="серое видео"><rect class="cls-16" x="307.57" y="110.29" width="128.34" height="79.49" rx="5.45"/><circle class="cls-2" cx="317.54" cy="120.68" r="2.29"/><line class="cls-3" x1="322.84" y1="120.68" x2="378.89" y2="120.68"/><polygon class="cls-3" points="411.92 123.04 411.92 118.32 415.23 118.32 415.23 123.04 413.57 120.68 411.92 123.04"/><polygon class="cls-4" points="418.43 119.08 420.21 120.68 420.21 123.04 423.92 119.08 418.43 119.08"/><circle class="cls-3" cx="429.21" cy="120.68" r="2.36"/><polyline class="cls-3" points="429.21 119.85 429.21 120.68 430.17 120.68"/><line class="cls-3" x1="320.09" y1="180.92" x2="418.31" y2="180.98"/><line class="cls-3" x1="420.35" y1="180.92" x2="424.69" y2="180.92"/><line class="cls-3" x1="313.46" y1="180.89" x2="317.41" y2="180.95"/><polyline class="cls-3" points="428.44 179.58 426.56 179.58 426.56 180.92"/><polyline class="cls-3" points="426.56 181.62 426.56 182.81 428.44 182.81"/><polyline class="cls-3" points="429.46 179.58 430.73 179.58 430.73 180.95"/><polyline class="cls-3" points="430.73 181.62 430.73 183.15 429.46 183.15"/><ellipse class="cls-17" cx="372.43" cy="152.29" rx="9.36" ry="8.98"/><polygon class="cls-2" points="369.96 148.41 369.96 154.8 375.83 152.29 369.96 148.41"/></g><g id="плей"><polygon class="cls-16" points="298.04 224.84 298.04 240.84 310.64 232.84 298.04 224.84"/></g><g id="кактус"><line class="cls-18" x1="344.17" y1="214.46" x2="344.17" y2="217.5"/><line class="cls-18" x1="338.64" y1="218.46" x2="340.14" y2="219.92"/><line class="cls-18" x1="336.09" y1="226.71" x2="338.69" y2="227.22"/><line class="cls-18" x1="337.36" y1="234.36" x2="340.01" y2="234.16"/><line class="cls-18" x1="340.14" y1="241.88" x2="342.78" y2="241.69"/><line class="cls-18" x1="343.43" y1="251.13" x2="345.94" y2="250.3"/><line class="cls-18" x1="344.69" y1="257.88" x2="347.2" y2="257.05"/><line class="cls-18" x1="348.22" y1="265.52" x2="350.73" y2="264.69"/><line class="cls-18" x1="348.22" y1="219.6" x2="350.73" y2="218.77"/><line class="cls-18" x1="351.73" y1="225.67" x2="354.24" y2="224.84"/><line class="cls-18" x1="354.19" y1="232.58" x2="356.82" y2="232.27"/><line class="cls-18" x1="354.44" y1="239.48" x2="357.07" y2="239.18"/><line class="cls-18" x1="356.9" y1="252.13" x2="358.64" y2="250.13"/><line class="cls-18" x1="355.5" y1="245.23" x2="357.24" y2="243.23"/><line class="cls-18" x1="358.64" y1="259.88" x2="360.38" y2="257.88"/><line class="cls-18" x1="366.34" y1="237.35" x2="368.08" y2="235.35"/><line class="cls-18" x1="367.66" y1="242.11" x2="370.23" y2="241.45"/><line class="cls-18" x1="360.21" y1="253.75" x2="362.77" y2="253.08"/><line class="cls-18" x1="358.73" y1="242.62" x2="361.31" y2="243.18"/><line class="cls-18" x1="388" y1="204.56" x2="389.74" y2="202.56"/><line class="cls-18" x1="391.01" y1="222.21" x2="395.46" y2="219.12"/><line class="cls-18" x1="388.92" y1="211.43" x2="394.26" y2="210.61"/><line class="cls-18" x1="382.48" y1="202.56" x2="384.84" y2="207.42"/><line class="cls-18" x1="377.62" y1="210.24" x2="382.48" y2="212.62"/><line class="cls-18" x1="374.74" y1="220.21" x2="379.6" y2="222.59"/><line class="cls-18" x1="375.19" y1="230.65" x2="380.05" y2="233.03"/><line class="cls-18" x1="373.78" y1="237.99" x2="378.64" y2="240.37"/><line class="cls-18" x1="373.24" y1="245.03" x2="378.63" y2="245.44"/><line class="cls-18" x1="373.24" y1="254.7" x2="377.58" y2="251.47"/><line class="cls-18" x1="373.77" y1="263.96" x2="378.1" y2="260.73"/><line class="cls-18" x1="386.55" y1="254.7" x2="390.04" y2="258.84"/><line class="cls-18" x1="386.55" y1="245.76" x2="391.7" y2="247.44"/><line class="cls-18" x1="387.34" y1="239.1" x2="392.74" y2="239.26"/><line class="cls-18" x1="389.13" y1="227.96" x2="393.82" y2="230.65"/><line class="cls-18" x1="387.4" y1="206.83" x2="392.74" y2="206.01"/><path class="cls-19" d="M364.94,267.69s-9.32-34-2.3-34,10,33.2,10,33.2"/><path class="cls-19" d="M375.15,267.69s.25-51.53,5.11-60.64,11.91,0,11.91,0-1.19,48.6-6.55,60.64Z"/><path class="cls-19" d="M351.91,269l-13.27-40.09s-.13-12,4.85-11.36,9.32,7.32,9.32,7.32l8.68,43Z"/><polygon class="cls-20" points="341.89 266.35 341.89 275.73 396.02 276.12 396.02 267.12 341.89 266.35"/><polygon class="cls-20" points="346.64 276.12 352.51 303.14 385.45 303.14 392.17 276.12 346.64 276.12"/><line class="cls-21" x1="349.48" y1="276.93" x2="388.92" y2="276.93"/><line class="cls-22" y1="303.14" x2="450.04" y2="303.14"/></g><g id="коробки"><rect class="cls-23" x="31.83" y="271.65" width="48.34" height="30.3"/><rect class="cls-24" x="45.62" y="275.39" width="21.45" height="5.11"/><rect class="cls-2" x="42.55" y="286.12" width="26.72" height="10.38"/><rect class="cls-23" x="45.62" y="229.44" width="48.34" height="30.3"/><rect class="cls-24" x="59.4" y="233.18" width="21.45" height="5.11"/><rect class="cls-2" x="56.34" y="243.9" width="26.72" height="10.38"/><polygon class="cls-16" points="27.4 269.78 82.21 269.78 82.21 301.95 131.57 301.95 130.72 269.78 134.81 269.78 134.81 261.27 146.72 261.27 146.72 220.75 42.55 220.75 42.55 228.75 95.15 229.44 96 261.35 27.4 261.35 27.4 269.78"/></g><g id="девушка"><path class="cls-25" d="M207.21,150.63l81.51,15.84s1.15-10-7.91-24.78c0,0-7-21-7.28-30.55,0,0-10.13-70.26-43.43-54.13,0,0-28.47-6.25-25.33,36.85Z"/><path class="cls-26" d="M229.62,57s-6.13,2.26-7.66,12.62"/><path class="cls-26" d="M227.68,58.2s17.94,13.62,24.06,15.15,14,28.09,14,28.09"/><path class="cls-26" d="M222.94,65.45s14,9.18,19.61,12.2,16,7.28,20.6,19.36"/><path class="cls-26" d="M263.15,111.65s-3.06,20.42,0,28.51"/><ellipse class="cls-27" cx="229.23" cy="100.71" rx="23.74" ry="32.3"/><path class="cls-28" d="M229.23,83.05s4.56-4.85,10.6,0Z"/><path class="cls-28" d="M217.45,86.46s-4.94-5.45-8.94,0Z"/><path class="cls-29" d="M223.83,89.86l-6.38,15.49s-.85,1.62.42,2.13h5.07"/><circle class="cls-30" cx="233.6" cy="96.73" r="1.94"/><circle class="cls-30" cx="212.13" cy="95.95" r="2.09"/><path class="cls-31" d="M231.66,92.76s3.74-3.07,8.17-2.13"/><path class="cls-31" d="M217.17,93.86s-1.51-3.57-8.32-2.64"/><ellipse class="cls-32" cx="227.15" cy="114.12" rx="3.32" ry="2.98"/><path class="cls-33" d="M222.38,115.39s6.3,2,7.24-6"/><path class="cls-27" d="M253,98.67l.72,3.79s3.49-10.64,10-1.75c0,0,2.3,11.15-8.43,11.77,0,0-3.57,14.4-1.87,20.53a9.76,9.76,0,0,0,7,7.15l-27.15,27.23-32.68,28.68-4.17-14.21,16.77-30.13,8-11.14v-9.53a19.05,19.05,0,0,0,22-4.14C253.36,116.59,253,98.67,253,98.67Z"/><path class="cls-34" d="M221.1,137.27s15.93,2.62,21.58-9.93c0,0-8.4,10.63-21.58,3.72Z"/><path class="cls-35" d="M258.3,100.24s6.55,4.35-.85,9.11"/><path class="cls-36" d="M260.34,140.16s38.72,21.7,33.45,49.62c0,0-12.43,32.13-30.64,56,0,0,.11,7.89-2.32,11a98.07,98.07,0,0,1,3.77,28.53s3.06,11.1,3.06,16.72H175.74S178.55,263.1,181,262l8.17-21.11-.38-24.21A67.34,67.34,0,0,1,186.71,197c.41-7.83,2.57-16.45,8.82-22.71,0,0-2.86-19.78,25.57-31.78L220,155.1l-17.61,36.12,20.8-28.34L235,160.07l23.47-20.61Z"/><line class="cls-37" x1="196.34" y1="210.63" x2="186.71" y2="196.95"/><path class="cls-37" d="M195.83,222.76c-.17-.09-7.38-7.37-7.38-7.37"/><line class="cls-37" x1="200.47" y1="220.03" x2="212.13" y2="209.99"/><line class="cls-37" x1="200.64" y1="209.73" x2="213.87" y2="200.63"/><path class="cls-38" d="M221.1,142.46s-19.82,14.3-18,25.27l5.23-7.35s-5.48,25.86-6.12,31.61c0,0-8.06,44.49-7.25,52.13a5.5,5.5,0,0,0,.1.59c1.41,5.49-5.87,25.15-5.87,25.15l-.7,32.09"/><path class="cls-38" d="M269,145.92l-16,20-12.77-6.64s-15.32,8.68-24,25.28"/><path class="cls-38" d="M218.89,189.78l-6.76,27,11.1,12.12,14.3-5.36L247.36,197S237.4,190.5,218.89,189.78Z"/><path class="cls-38" d="M217.54,195.16s17.05.61,27.58,7.85"/><line class="cls-37" x1="223.23" y1="228.88" x2="228.98" y2="197.23"/><path class="cls-38" d="M263.15,245.76s-9.53,17.21-16.3,20.59a102,102,0,0,1-15.52,5.81s-7.07,2.43-11.16,2.43L213,245.76s8.17-4.32,9.58-4.92c0,0,4-2.25,6.38-.72,0,0,.45-7.79,6-6.39l21.93-41"/><path class="cls-38" d="M222.6,240.84s10.67,8.63,7.5,31.72"/><path class="cls-39" d="M229,240.12l3.19,4.11s.51,14.4,8.3,11.46c0,0,4.21-3-7.28-11.46l-4-5.55Z"/><path class="cls-38" d="M235.1,239.18s9.71,10.64,12.26,10.51"/><path class="cls-38" d="M235,235.35c.1-.34,7.76,2,11.33,1"/><line class="cls-37" x1="253.09" y1="260.73" x2="244.79" y2="215.61"/><line class="cls-37" x1="261.28" y1="246.5" x2="250.15" y2="206.26"/><line class="cls-37" x1="248.94" y1="148.41" x2="260.11" y2="157.02"/><line class="cls-37" x1="253.49" y1="143.84" x2="263.15" y2="153.22"/><path class="cls-40" d="M189,232.84l-6.76-5.62s7.83-7.38,5.51-15.11Z"/><path class="cls-41" d="M219.34,271.23l-67.85-16.94s-12.77-8.86-12.26-12.18l40.05,3.12,34.59,5.48Z"/><polygon class="cls-42" points="160.34 245.44 218.55 252.13 174.81 230.63 156.16 235.31 160.34 245.44"/><path class="cls-43" d="M156.09,231.65S154,224.59,159,222.2c0,0,3.32-2.21,8.42,2.56l3.15-2,7.75.46L189,232.84l-.57,8.34s-23.34,3.57-24.19-9.74,0-.39,0-.39-2.22,5.36-5.11,6.64c0,0-1.16-4.23,1.62-9.87C160.77,227.82,157.79,223.9,156.09,231.65Z"/><path class="cls-44" d="M166,231.65c.51.25,20.09-11.3,4.68,7"/><path class="cls-44" d="M183.63,240.21a12.43,12.43,0,0,1-5.3-12.48"/><polygon class="cls-45" points="98.89 228.88 70.13 164.07 131.57 175.82 160.34 245.44 98.89 228.88"/><circle class="cls-2" cx="114.01" cy="203.31" r="4.23"/></g></svg>