<svg xmlns="http://www.w3.org/2000/svg" viewBox="0 0 200 200"><defs><style>.cls-1{fill:#fff;}.cls-2{fill:none;stroke:#1179be;stroke-miterlimit:10;stroke-width:5px;}.cls-3{fill:#1179be;}</style></defs><g id="Слой_2" data-name="Слой 2"><g id="Слой_1-2" data-name="Слой 1"><circle class="cls-1" cx="100" cy="100" r="87.5"/><path class="cls-1" d="M100,1A99,99,0,1,1,1,100,99.11,99.11,0,0,1,100,1m0-1A100,100,0,1,0,200,100,100,100,0,0,0,100,0Z"/><path class="cls-2" d="M46.67,136.5s29.07-13.25,55,8.37v-53s-27-22.32-55-7.5Z"/><path class="cls-2" d="M54.36,94s8.37-3.66,19.82,0"/><path class="cls-2" d="M92.62,101.28S90.11,97.79,84,96.75"/><path class="cls-2" d="M54.36,104.77s23.42-4.19,38.26,8"/><path class="cls-2" d="M54.36,117s1.78-1.92,9.11-1"/><path class="cls-2" d="M92.62,126s-7.38-8.37-22.17-9.07"/><path class="cls-2" d="M49.89,144.87s22.17-13.6,46.84,5.58"/><path class="cls-2" d="M156.48,137.05s-29.08-13.25-55,8.37v-53s27-22.32,55-7.5Z"/><path class="cls-2" d="M148.79,94.51s-8.37-3.66-19.83,0"/><path class="cls-2" d="M110.53,101.83s2.5-3.49,8.58-4.53"/><path class="cls-2" d="M148.79,105.32s-23.42-4.19-38.26,8"/><path class="cls-2" d="M148.79,117.52s-1.79-1.91-9.12-1"/><path class="cls-2" d="M110.53,126.59s7.38-8.37,22.17-9.07"/><path class="cls-2" d="M153.26,145.42s-22.17-13.6-46.84,5.58"/><line class="cls-2" x1="101.44" y1="78.27" x2="101.44" y2="85.59"/><ellipse class="cls-2" cx="101.57" cy="51.95" rx="20.04" ry="19.55"/><path class="cls-3" d="M100.31,58.82a3.29,3.29,0,0,1-1.51-2.7,4,4,0,0,1,.53-2,19.43,19.43,0,0,1,2.4-3,17.28,17.28,0,0,0,2.18-2.78,4.45,4.45,0,0,0,.7-2.32,3.74,3.74,0,0,0-1.34-3A4.81,4.81,0,0,0,100,41.9a6.71,6.71,0,0,0-2.36.48,4.45,4.45,0,0,0-.93,1.35L96,45.1l-.22.15L95,45.16l-.11-.26,1.42-4.17A8.65,8.65,0,0,1,101,39.36a9.15,9.15,0,0,1,3.59.69,5.78,5.78,0,0,1,2.57,2.06,5.37,5.37,0,0,1,.93,3.08,6,6,0,0,1-.38,2.13,7.44,7.44,0,0,1-1.11,1.93,22.78,22.78,0,0,1-2.8,2.75c-.87.76-1.54,1.37-2,1.85a6.08,6.08,0,0,0-1,1.4,2.63,2.63,0,0,0-.35,1.23,2.45,2.45,0,0,0,.74,1.73l0,.25-.48.36Zm.35,2.34a2.16,2.16,0,0,1,1.57.63,2.1,2.1,0,0,1,.65,1.54,2.05,2.05,0,0,1-.65,1.51,2.16,2.16,0,0,1-1.57.63,2.18,2.18,0,0,1-1.56-.63,2.05,2.05,0,0,1-.65-1.51,2,2,0,0,1,.66-1.54A2.19,2.19,0,0,1,100.66,61.16Z"/></g></g></svg>