<svg xmlns="http://www.w3.org/2000/svg" viewBox="0 0 200 200"><defs><style>.cls-1{fill:#fff;}.cls-2{fill:#1179be;}.cls-3{fill:none;stroke:#1179be;stroke-miterlimit:10;stroke-width:7px;}</style></defs><g id="Слой_2" data-name="Слой 2"><g id="Слой_6" data-name="Слой 6"><circle class="cls-1" cx="100" cy="100" r="87.5"/><path class="cls-1" d="M100,1A99,99,0,1,1,1,100,99.11,99.11,0,0,1,100,1m0-1A100,100,0,1,0,200,100,100,100,0,0,0,100,0Z"/><rect class="cls-2" x="56.34" y="114.49" width="7.99" height="32.43" rx="2.54"/><ellipse class="cls-2" cx="62.02" cy="113.86" rx="4.06" ry="2.31" transform="translate(-64.93 140.19) rotate(-73.14)"/><polygon class="cls-2" points="60.96 110.99 57.32 114.76 64.33 116.43 64.47 113.41 60.96 110.99"/><rect class="cls-2" x="69.77" y="113.71" width="7.99" height="32.43" rx="2.54" transform="translate(147.53 259.85) rotate(-180)"/><ellipse class="cls-2" cx="72.08" cy="113.07" rx="2.31" ry="4.06" transform="translate(-29.69 25.76) rotate(-16.86)"/><polygon class="cls-2" points="73.15 110.21 76.79 113.98 69.77 115.65 69.63 112.63 73.15 110.21"/><rect class="cls-2" x="111.95" y="115.57" width="7.99" height="32.43" rx="2.54"/><ellipse class="cls-2" cx="117.63" cy="114.93" rx="4.06" ry="2.31" transform="translate(-26.47 194.17) rotate(-73.14)"/><polygon class="cls-2" points="116.57 112.06 112.93 115.83 119.94 117.51 120.08 114.49 116.57 112.06"/><rect class="cls-2" x="83.04" y="125.59" width="7.99" height="21.79" rx="2.54" transform="translate(174.07 272.97) rotate(-180)"/><ellipse class="cls-2" cx="85.35" cy="125.16" rx="2.13" ry="2.96" transform="translate(-60.52 84.29) rotate(-40.05)"/><polygon class="cls-2" points="86.42 123.23 90.06 125.77 83.04 126.89 82.9 124.86 86.42 123.23"/><rect class="cls-2" x="97.53" y="127.77" width="7.94" height="19.16" rx="2.54"/><ellipse class="cls-2" cx="103.12" cy="127.45" rx="2.74" ry="2.05" transform="translate(-58.01 97.23) rotate(-40.4)"/><polygon class="cls-2" points="102.04 125.7 98.48 128.21 105.33 129.32 105.47 127.31 102.04 125.7"/><rect class="cls-2" x="125.91" y="101" width="7.99" height="46.38" rx="2.54"/><ellipse class="cls-2" cx="131.59" cy="100.37" rx="4.06" ry="2.31" transform="translate(-2.62 197.2) rotate(-73.14)"/><polygon class="cls-2" points="130.53 97.5 126.89 101.27 133.91 102.94 134.05 99.92 130.53 97.5"/><polyline class="cls-3" points="35.58 127.77 67.79 96.2 95.17 122.67 154.89 66.34"/><polygon class="cls-2" points="140.78 53.84 168.11 79.19 169 52.39 140.78 53.84"/><path class="cls-2" d="M83.12,98A75.73,75.73,0,0,0,84,90l.3-.23h1.47l.27.26c.06,2.9.13,4.56.19,5a15.32,15.32,0,0,0,4.16,2.61,14.22,14.22,0,0,0,5.46.9V82.63c-2.27-.28-4.13-.58-5.56-.91A10.83,10.83,0,0,1,86.46,80a7.75,7.75,0,0,1-2.55-2.92,8.79,8.79,0,0,1-.82-3.89,10.61,10.61,0,0,1,3.14-7.52q3.13-3.32,9.66-4.18c0-1.8-.06-3-.13-3.54l.33-.25h2.33l.33.25c0,.15-.09,1.29-.13,3.42q7.93.54,11,2.31l.14.36a15.87,15.87,0,0,0-.42,1.64c-.09.52-.19,1.23-.27,2.15l-.27,2.92-.26.25h-1.31l-.26-.22a27.76,27.76,0,0,0-.56-4.63q-2.73-2.64-7.75-2.73V78.25a62.09,62.09,0,0,1,6.42,1A13.14,13.14,0,0,1,109.19,81a7.33,7.33,0,0,1,2.63,2.81,8.21,8.21,0,0,1,.85,3.8A11.38,11.38,0,0,1,111,93.68a12.67,12.67,0,0,1-4.5,4.38,24,24,0,0,1-7.84,2.48c0,2.87.11,4.72.2,5.56l-.3.25H96.09l-.33-.25c0-.62.09-2.43.13-5.44a36.38,36.38,0,0,1-12.5-2.25ZM95.89,63.55a11.5,11.5,0,0,0-3.66.92A7,7,0,0,0,89.43,67a7.7,7.7,0,0,0-1.22,4.43q0,3.56,2.27,4.91A12.65,12.65,0,0,0,95.89,78Zm2.73,34.83a8.8,8.8,0,0,0,6.29-2.55,8.24,8.24,0,0,0,2.47-6.07,5.81,5.81,0,0,0-1.82-4.49c-1.21-1.12-3.53-1.91-6.94-2.36Z"/></g></g></svg>