<svg xmlns="http://www.w3.org/2000/svg" viewBox="0 0 200 200"><defs><style>.cls-1{fill:#fff;}.cls-2{fill:#1179be;}</style></defs><g id="Слой_2" data-name="Слой 2"><g id="Слой_4" data-name="Слой 4"><circle class="cls-1" cx="100" cy="100" r="87.5"/><path class="cls-1" d="M100,1A99,99,0,1,1,1,100,99.11,99.11,0,0,1,100,1m0-1A100,100,0,1,0,200,100,100,100,0,0,0,100,0Z"/><path class="cls-2" d="M77.23,147.2s-4.32,1.12,0,5.35h42.12a3.55,3.55,0,0,0,0-5.35S109.17,146.9,109,137h38.27a8.48,8.48,0,0,0,7.1-7.25V73.45l-6.49,9.88L147.12,116a2.43,2.43,0,0,1-3.24,2.46l-92.73.16s-2.47,0-2-2.93l0-56.32A1.77,1.77,0,0,1,50.69,58h80.39l5.55-7.1H49.09s-7,1-7.33,7.72-.23,71.59-.23,71.59.75,6.73,8.39,6.79l37.49.31S88.34,144.12,77.23,147.2Z"/><circle class="cls-1" cx="98.06" cy="127.92" r="4.32"/><rect class="cls-2" x="67.97" y="84.71" width="18.36" height="26.23" rx="2.36"/><path class="cls-2" d="M125.44,66H69.74s-1.39-.23-1.77,1.62,0,11.11,0,11.11-.39,1.7,2,2.09,46,0,46,0L120.43,79Z"/><path class="cls-2" d="M110.4,84.72H90.93a.58.58,0,0,0-.62.37,15.63,15.63,0,0,0,0,2.58s-.14.4.7.48,16.07,0,16.07,0l1.57-.42Z"/><path class="cls-2" d="M103,110.94H91s-.3.06-.38-.39,0-2.71,0-2.71-.08-.41.43-.51,9.91,0,9.91,0l1,.46Z"/><polygon class="cls-2" points="107.06 92.29 106.58 95.86 92.68 95.86 92.68 92.29 107.06 92.29"/><rect class="cls-2" x="90.53" y="92.29" width="3.78" height="3.57" rx="1.47"/><rect class="cls-2" x="90.6" y="99.78" width="7.33" height="3.5" rx="1.29"/><path class="cls-2" d="M97.15,99.78h9.62s.19,1.82-.62,2.46l-1.69.6,0,.44H97.15Z"/><path class="cls-2" d="M106.15,102.24a2.56,2.56,0,0,1-1.67,1l-.43-.52.59-.66Z"/><path class="cls-2" d="M109.37,106.39s-4.06,1.8-.18,3.22a16.46,16.46,0,0,0,12.09,0,23.35,23.35,0,0,0,9.77-8.41s4.14-6.53.8-12.5c0,0,7-3,10.41-7.28,0,0-9.1-2-14-9.8,0,0-3.88,6.92-3,12.19,0,0-11.34-.87-13.53,10.91A23.27,23.27,0,0,0,112,100,8.42,8.42,0,0,1,109.37,106.39Z"/><path class="cls-2" d="M131.47,66.24s-.78,1.05-.11,1.51,3.7,6.27,13.11,9.34a1.59,1.59,0,0,0,1.37-.17S160,55.55,162.09,44.75c0,0,.41-7.08-5.3-4.88C156.79,39.87,146.22,45.09,131.47,66.24Z"/></g></g></svg>