<svg xmlns="http://www.w3.org/2000/svg" viewBox="0 0 200 200"><defs><style>.cls-1{fill:#fff;}.cls-2{fill:none;stroke:#1179be;stroke-miterlimit:10;stroke-width:5px;}.cls-3{fill:#1179be;}</style></defs><g id="Слой_2" data-name="Слой 2"><g id="Слой_3" data-name="Слой 3"><circle class="cls-1" cx="100" cy="100" r="87.5"/><path class="cls-1" d="M100,1A99,99,0,1,1,1,100,99.11,99.11,0,0,1,100,1m0-1A100,100,0,1,0,200,100,100,100,0,0,0,100,0Z"/><polyline class="cls-2" points="61.24 114.06 61.24 150.93 134.37 150.93 134.37 121.89"/><polyline class="cls-2" points="62.07 76.93 62.07 57.21 135.4 57.21 135.4 60.87"/><rect class="cls-3" x="84.11" y="43.42" width="28.74" height="21.91"/><circle class="cls-2" cx="98.41" cy="37.19" r="8.84"/><polygon class="cls-2" points="92.25 127.97 84.11 107.16 41.06 65.03 30.35 75.33 72.78 118.59 92.25 127.97"/><polygon class="cls-3" points="84.11 122.31 88.72 117.22 92.25 126.23 84.11 122.31"/><polygon class="cls-3" points="35.91 79.27 46.57 68.7 84.11 105.42 82.26 104.6 82.05 110.88 77.52 110.27 78.44 114.59 72.16 114.59 73.53 117.22 35.91 79.27"/><path class="cls-3" d="M115.52,119.83s74.68-7.52,62.42-37S121.4,69,121.4,69s-31.93,16.37,1,38.62Z"/><path class="cls-1" d="M143.36,97.76a3.82,3.82,0,0,1-2-3.19,4.32,4.32,0,0,1,.71-2.37,23.86,23.86,0,0,1,3.18-3.52,21.89,21.89,0,0,0,2.88-3.27,4.93,4.93,0,0,0,.93-2.75,4.27,4.27,0,0,0-1.78-3.5,6.87,6.87,0,0,0-4.36-1.39,9.86,9.86,0,0,0-3.13.57,5.48,5.48,0,0,0-1.22,1.6l-.93,1.61-.29.17-1.08-.1-.15-.3L138,76.39a12.4,12.4,0,0,1,6.23-1.62,13.25,13.25,0,0,1,4.76.82A7.49,7.49,0,0,1,152.4,78a5.86,5.86,0,0,1,1.23,3.64,6.22,6.22,0,0,1-.5,2.51,8.9,8.9,0,0,1-1.46,2.29A29.42,29.42,0,0,1,148,89.7c-1.16.9-2,1.63-2.65,2.19a7.26,7.26,0,0,0-1.38,1.65,3,3,0,0,0-.47,1.46,2.79,2.79,0,0,0,1,2l-.05.3-.64.42Zm.47,2.77a3.07,3.07,0,0,1,2.08.75,2.32,2.32,0,0,1,0,3.59,3.28,3.28,0,0,1-4.15,0,2.28,2.28,0,0,1-.87-1.79,2.31,2.31,0,0,1,.88-1.82A3.16,3.16,0,0,1,143.83,100.53Z"/></g></g></svg>