<svg xmlns="http://www.w3.org/2000/svg" viewBox="0 0 200 200"><defs><style>.cls-1{fill:#fff;}.cls-2{fill:#1179be;}</style></defs><g id="Слой_2" data-name="Слой 2"><g id="Слой_7" data-name="Слой 7"><path class="cls-1" d="M100,1A99,99,0,1,1,1,100,99.11,99.11,0,0,1,100,1m0-1A100,100,0,1,0,200,100,100,100,0,0,0,100,0Z"/><circle class="cls-1" cx="100" cy="100" r="87.5"/><path class="cls-2" d="M77.88,134.71s17.82,21.36,23.19,20.93,23.61-20.93,23.61-20.93a5.68,5.68,0,0,1,5.69-1.72c1.53.3,15.78-.14,15.78-.14a15.13,15.13,0,0,0,12.35-13V69.33S157,56.23,144.33,55.8s-86.21,0-86.21,0-13.52,1-13.74,13.74,0,51,0,51,.43,10.73,13.21,12.45l16.53-.21S76.92,133.58,77.88,134.71Z"/><path class="cls-1" d="M66.87,110.55s1-15.21,16-14.65,16.18,14.25,16.18,14.25Z"/><circle class="cls-1" cx="82.9" cy="84.3" r="7.97"/><path class="cls-1" d="M102.84,103.56v-.19a8.86,8.86,0,0,0,4.73-2.47,7.07,7.07,0,0,0,1.94-4.45A4.72,4.72,0,0,1,106,98.22a4.16,4.16,0,0,1-2.18-.56,3.57,3.57,0,0,1-1.37-1.44,4.68,4.68,0,0,1-.44-2.08,4.58,4.58,0,0,1,1.41-3.51,4.94,4.94,0,0,1,3.51-1.32,4.42,4.42,0,0,1,3.42,1.42,5.85,5.85,0,0,1,1.3,4.1,10.44,10.44,0,0,1-.24,2.26,7.36,7.36,0,0,1-.9,2.23,8.58,8.58,0,0,1-1.75,2.11,9.66,9.66,0,0,1-2.46,1.63,8.91,8.91,0,0,1-2.7.83Zm1-10.08a4.65,4.65,0,0,0,.33,1.72,2.7,2.7,0,0,0,1,1.31,2.83,2.83,0,0,0,1.6.45,2.73,2.73,0,0,0,2.06-.8,3.29,3.29,0,0,0,.78-2.39,4.48,4.48,0,0,0-.77-2.71A2.46,2.46,0,0,0,106.74,90a2.72,2.72,0,0,0-2.1.89A3.72,3.72,0,0,0,103.83,93.48Z"/><path class="cls-1" d="M113.93,103.56v-.19a8.85,8.85,0,0,0,4.74-2.47,7.12,7.12,0,0,0,1.94-4.45A4.72,4.72,0,0,1,117,98.22a4.15,4.15,0,0,1-2.17-.56,3.5,3.5,0,0,1-1.37-1.44,5.1,5.1,0,0,1,1-5.59A4.94,4.94,0,0,1,118,89.31a4.41,4.41,0,0,1,3.41,1.42,5.81,5.81,0,0,1,1.31,4.1,10.44,10.44,0,0,1-.24,2.26,7.91,7.91,0,0,1-.9,2.23,8.58,8.58,0,0,1-1.75,2.11,9.66,9.66,0,0,1-2.46,1.63,8.91,8.91,0,0,1-2.7.83Zm1-10.08a4.65,4.65,0,0,0,.33,1.72,2.74,2.74,0,0,0,1,1.31,2.87,2.87,0,0,0,1.61.45,2.73,2.73,0,0,0,2.06-.8,3.29,3.29,0,0,0,.78-2.39,4.48,4.48,0,0,0-.77-2.71A2.48,2.48,0,0,0,117.83,90a2.7,2.7,0,0,0-2.09.89A3.72,3.72,0,0,0,114.93,93.48Z"/></g></g></svg>