<svg xmlns="http://www.w3.org/2000/svg" viewBox="0 0 200 200"><defs><style>.cls-1{fill:#fff;}.cls-2{fill:#1179be;}.cls-3{fill:none;stroke:#1179be;stroke-miterlimit:10;stroke-width:6px;}</style></defs><g id="Слой_2" data-name="Слой 2"><g id="Слой_5" data-name="Слой 5"><path class="cls-1" d="M100,1A99,99,0,1,1,1,100,99.11,99.11,0,0,1,100,1m0-1A100,100,0,1,0,200,100,100,100,0,0,0,100,0Z"/><circle class="cls-1" cx="100" cy="100" r="87.5"/><rect class="cls-2" x="136.82" y="117.88" width="13.39" height="25.2" transform="translate(-50.43 133.26) rotate(-43.1)"/><rect class="cls-2" x="147.14" y="135.87" width="13.24" height="10.98" rx="2.4" transform="translate(-55.1 143.19) rotate(-43.1)"/><rect class="cls-2" x="124.82" y="115.22" width="12.81" height="5.85" transform="translate(-45.11 127.39) rotate(-45)"/><path class="cls-2" d="M134.3,91.68l7.81-6s1.49,19.29-14,33.12-35.59,9.81-35.59,9.81c-22.19-3.38-33.69-17.29-36-40.18C57.91,65.6,68.18,50.31,90.39,45.24c19.9-2,36.63,3.94,48,23.25l-6,5s-20.66-34.26-51.65-16c0,0-21.7,13.77-14.3,40.12s40.47,23.07,40.47,23.07S124.66,117.8,134.3,91.68Z"/><polygon class="cls-2" points="53.42 99.08 55.6 104.71 38.5 118.15 38.5 111.02 53.42 99.08"/><polyline class="cls-3" points="69.72 89.33 78.45 83.47 89.81 105.63 103.48 64.87 117.71 94.26 159.27 62.46"/></g></g></svg>