<svg xmlns="http://www.w3.org/2000/svg" viewBox="0 0 200 200"><defs><style>.cls-1{fill:#fff;}.cls-2{fill:none;stroke:#1179be;stroke-miterlimit:10;stroke-width:5px;}.cls-3{fill:#1179be;}</style></defs><g id="Слой_2" data-name="Слой 2"><g id="Слой_9" data-name="Слой 9"><circle class="cls-1" cx="100" cy="100" r="87.5"/><path class="cls-1" d="M100,1A99,99,0,1,1,1,100,99.11,99.11,0,0,1,100,1m0-1A100,100,0,1,0,200,100,100,100,0,0,0,100,0Z"/><path class="cls-2" d="M72.11,89.07l-2.32-10H87.91s6-1.53,6-7.86V45.29A8.54,8.54,0,0,0,86.39,38H48.45s-5.93,1.76-7.21,6.33V71.67s2.32,7.38,8.58,6.9l8.42.4Z"/><path class="cls-2" d="M70.5,97l-2.17,6.91H85.18s5.59,1.05,5.59,5.41v17.85s-.59,4.36-7,5H48.51S43,131,41.8,127.8V109a8.28,8.28,0,0,1,8-4.75l7.83-.28Z"/><circle class="cls-2" cx="58.4" cy="51.3" r="5.21"/><ellipse class="cls-2" cx="68.78" cy="51.06" rx="5.17" ry="4.97"/><rect class="cls-2" x="54.98" y="56.03" width="17.37" height="12.59"/><polygon class="cls-2" points="80.13 56.03 80.13 68.62 72.35 65.17 72.35 59.88 80.13 56.03"/><path class="cls-2" d="M125.25,103.91l2.5-9.73h-19.5s-6.46-1.48-6.46-7.63V61.41s.69-6.15,8.1-7.09h40.8s6.39,1.71,7.77,6.15V87s-2.5,7.16-9.23,6.69l-9.06.39Z"/><polyline class="cls-2" points="158.46 87.02 146.8 79.11 134.83 87.02 118.25 74.32 101.78 86.08"/><line class="cls-2" x1="47.36" y1="113.24" x2="69.39" y2="113.24"/><line class="cls-2" x1="74.09" y1="113.24" x2="83.93" y2="113.24"/><line class="cls-2" x1="47.36" y1="121.37" x2="83.93" y2="121.37"/><path class="cls-2" d="M69.39,139v9.62s2,8.13,8.76,7.06l70.26.1V115.38S148,106.05,137.29,97l-8.13,5.36.53,16.47,6.95,7.58-16.89-18.17s-12.51-2.88-10.37,10.91l15.07,14.54L120.71,140Z"/><rect class="cls-3" x="98.15" y="145.53" width="3.88" height="3.88"/><path class="cls-2" d="M100.05,46.09h23.87s5.51,1.23,6.2,8.23"/></g></g></svg>