<svg id="Слой_2" data-name="Слой 2" xmlns="http://www.w3.org/2000/svg" viewBox="0 0 311.53 339.55"><defs><style>.cls-1{fill:none;stroke:#1279bf;stroke-miterlimit:10;}.cls-2{fill:#6d6f72;}.cls-3{fill:#fff;}.cls-4{fill:#55585c;}.cls-5{fill:#1279bf;}</style></defs><line class="cls-1" x1="17.21" y1="121.06" x2="17.21" y2="220.13"/><line class="cls-1" x1="43.77" y1="76.13" x2="127.17" y2="27.11"/><line class="cls-1" x1="185.04" y1="27.11" x2="265.72" y2="73.06"/><line class="cls-1" x1="294.32" y1="116.98" x2="294.32" y2="220.13"/><line class="cls-1" x1="185.04" y1="320.55" x2="272.87" y2="270.17"/><line class="cls-1" x1="37.3" y1="267.79" x2="128.53" y2="320.55"/><line class="cls-1" x1="41.04" y1="243.28" x2="131.26" y2="192.89"/><line class="cls-1" x1="186.75" y1="192.89" x2="265.72" y2="237.83"/><line class="cls-1" x1="157.47" y1="45.83" x2="157.47" y2="150"/><rect class="cls-2" x="2.75" y="225.32" width="29.7" height="20.6" rx="3.74"/><rect class="cls-3" x="7.51" y="230.34" width="5.96" height="6.47"/><rect class="cls-3" x="15.68" y="230.34" width="12.09" height="0.85"/><rect class="cls-3" x="15.68" y="233.15" width="12.09" height="1.28"/><rect class="cls-3" x="15.68" y="235.96" width="12.09" height="1.28"/><rect class="cls-3" x="7.51" y="239.11" width="20.26" height="1.28"/><path class="cls-2" d="M4.62,246.85l25.15.43L34.7,254a2,2,0,0,1-2.25,2.13H3A3.13,3.13,0,0,1,.28,253.7Z"/><path class="cls-3" d="M13.47,254.85a4.8,4.8,0,0,1,7.4,0Z"/><rect class="cls-2" x="2.47" y="79.96" width="29.7" height="20.6" rx="3.74"/><rect class="cls-3" x="7.23" y="84.98" width="5.96" height="6.47"/><rect class="cls-3" x="15.4" y="84.98" width="12.09" height="0.85"/><rect class="cls-3" x="15.4" y="87.79" width="12.09" height="1.28"/><rect class="cls-3" x="15.4" y="90.6" width="12.09" height="1.28"/><rect class="cls-3" x="7.23" y="93.74" width="20.26" height="1.28"/><path class="cls-2" d="M4.34,101.49l25.15.42,4.94,6.69a2,2,0,0,1-2.26,2.12H2.68A3.11,3.11,0,0,1,0,108.34Z"/><path class="cls-3" d="M13.19,109.49a4.82,4.82,0,0,1,7.41,0Z"/><rect class="cls-2" x="142.72" y="161" width="29.7" height="20.6" rx="3.74"/><rect class="cls-3" x="147.49" y="166.02" width="5.96" height="6.47"/><rect class="cls-3" x="155.66" y="166.02" width="12.09" height="0.85"/><rect class="cls-3" x="155.66" y="168.83" width="12.09" height="1.28"/><rect class="cls-3" x="155.66" y="171.64" width="12.09" height="1.28"/><rect class="cls-3" x="147.49" y="174.79" width="20.26" height="1.28"/><path class="cls-2" d="M144.6,182.53l25.14.43,4.94,6.68a2,2,0,0,1-2.25,2.13H142.94a3.13,3.13,0,0,1-2.68-2.39Z"/><path class="cls-3" d="M153.45,190.53a4.8,4.8,0,0,1,7.4,0Z"/><rect class="cls-2" x="279.57" y="225.17" width="29.7" height="20.6" rx="3.74"/><rect class="cls-3" x="284.34" y="230.19" width="5.96" height="6.47"/><rect class="cls-3" x="292.51" y="230.19" width="12.09" height="0.85"/><rect class="cls-3" x="292.51" y="233" width="12.09" height="1.28"/><rect class="cls-3" x="292.51" y="235.81" width="12.09" height="1.28"/><rect class="cls-3" x="284.34" y="238.96" width="20.26" height="1.28"/><path class="cls-2" d="M281.45,246.7l25.15.43,4.93,6.68a2,2,0,0,1-2.25,2.13H279.79a3.13,3.13,0,0,1-2.68-2.39Z"/><path class="cls-3" d="M290.3,254.7a4.8,4.8,0,0,1,7.4,0Z"/><rect class="cls-2" x="141.98" y="308.79" width="29.7" height="20.6" rx="3.74"/><rect class="cls-3" x="146.75" y="313.81" width="5.96" height="6.47"/><rect class="cls-3" x="154.92" y="313.81" width="12.09" height="0.85"/><rect class="cls-3" x="154.92" y="316.62" width="12.09" height="1.28"/><rect class="cls-3" x="154.92" y="319.43" width="12.09" height="1.28"/><rect class="cls-3" x="146.75" y="322.57" width="20.26" height="1.28"/><path class="cls-2" d="M143.85,330.32l25.15.42,4.94,6.69a2,2,0,0,1-2.26,2.12H142.19a3.11,3.11,0,0,1-2.68-2.38Z"/><path class="cls-3" d="M152.7,338.32a4.82,4.82,0,0,1,7.41,0Z"/><rect class="cls-2" x="142.15" width="29.7" height="20.6" rx="3.74"/><rect class="cls-3" x="146.91" y="5.02" width="5.96" height="6.47"/><rect class="cls-3" x="155.08" y="5.02" width="12.09" height="0.85"/><rect class="cls-3" x="155.08" y="7.83" width="12.09" height="1.28"/><rect class="cls-3" x="155.08" y="10.64" width="12.09" height="1.28"/><rect class="cls-3" x="146.91" y="13.79" width="20.26" height="1.28"/><path class="cls-2" d="M144,21.53l25.15.43,4.94,6.68a2,2,0,0,1-2.26,2.13H142.36a3.13,3.13,0,0,1-2.68-2.39Z"/><path class="cls-3" d="M152.87,29.53a4.82,4.82,0,0,1,7.41,0Z"/><rect class="cls-2" x="279.57" y="79.91" width="29.7" height="20.6" rx="3.74"/><rect class="cls-3" x="284.34" y="84.94" width="5.96" height="6.47"/><rect class="cls-3" x="292.51" y="84.94" width="12.09" height="0.85"/><rect class="cls-3" x="292.51" y="87.74" width="12.09" height="1.28"/><rect class="cls-3" x="292.51" y="90.55" width="12.09" height="1.28"/><rect class="cls-3" x="284.34" y="93.7" width="20.26" height="1.28"/><path class="cls-2" d="M281.45,101.45l25.15.42,4.93,6.69a2,2,0,0,1-2.25,2.12H279.79a3.11,3.11,0,0,1-2.68-2.38Z"/><path class="cls-3" d="M290.3,109.45a4.8,4.8,0,0,1,7.4,0Z"/><path class="cls-4" d="M124.59,296.13l6.89-5.12a2.39,2.39,0,0,1,1.79-.46,2.31,2.31,0,0,1,2,2.7,2.38,2.38,0,0,1-1,1.58l-7.14,5.3a6.78,6.78,0,0,1-3.46,1.23,6.44,6.44,0,0,1-3.46-.43l-10.74-5.25a10.87,10.87,0,0,1-3.69-3.11,9.69,9.69,0,0,1-1.91-4.33l-1.81-11.75a7.38,7.38,0,0,1,.44-3.55,5.85,5.85,0,0,1,1.92-2.82l7.55-5.61a2.26,2.26,0,0,1,1.78-.43,2.3,2.3,0,0,1,1.55.92,2.39,2.39,0,0,1,.46,1.79,2.24,2.24,0,0,1-.92,1.59l-7.27,5.4a2.09,2.09,0,0,0-.68,2.17L108.57,287a5.77,5.77,0,0,0,1.14,2.58,6.23,6.23,0,0,0,2.3,2l9.82,4.78A2.39,2.39,0,0,0,124.59,296.13Z"/><path class="cls-4" d="M140.78,281.15,124,258.62a2.39,2.39,0,0,1-.45-1.8,2.3,2.3,0,0,1,2.68-2,2.23,2.23,0,0,1,1.56.92l16.77,22.57a2.2,2.2,0,0,0,1.54.89,2.31,2.31,0,0,0,1.75-.44l7.82-5.81a2.31,2.31,0,0,0,.95-1.55,2.22,2.22,0,0,0-.42-1.73l-16.73-22.53a2.37,2.37,0,0,1-.48-1.8,2.35,2.35,0,0,1,2.71-2,2.37,2.37,0,0,1,1.59,1L160,266.79a6.91,6.91,0,0,1,1.33,5.32,6.84,6.84,0,0,1-2.77,4.71l-7.82,5.8a7.14,7.14,0,0,1-10-1.47Z"/><path class="cls-4" d="M185.48,242.31l1.25,1.68a9.26,9.26,0,0,1,1.79,7.09,9.12,9.12,0,0,1-3.72,6.27L173.11,266l-22.44-30.22,11.69-8.68a9.17,9.17,0,0,1,7.07-1.76,9.26,9.26,0,0,1,6.28,3.77l1.19,1.62a9.38,9.38,0,0,1,1.68,7.71A9.49,9.49,0,0,1,185.48,242.31ZM173,233.62l-1.16-1.57a4.71,4.71,0,0,0-3.16-1.9,4.53,4.53,0,0,0-3.53.87l-7.78,5.77,6.87,9.26,7.78-5.78a4.56,4.56,0,0,0,1.84-3.11A4.5,4.5,0,0,0,173,233.62Zm9.86,13.27-1.18-1.59a4.66,4.66,0,0,0-3.15-1.89,4.57,4.57,0,0,0-3.54.86L167.22,250l6.89,9.27,7.73-5.74a4.56,4.56,0,0,0,1.84-3.12A4.51,4.51,0,0,0,182.82,246.89Z"/><path class="cls-4" d="M199.09,205.86l-13.51,10,6.91,9.3,5.82-4.33a2.4,2.4,0,0,1,3.32.49,2.38,2.38,0,0,1,.48,1.81,2.29,2.29,0,0,1-.93,1.57l-5.82,4.32,6.95,9.37,13.55-10.06a2.39,2.39,0,0,1,3.33.49,2.22,2.22,0,0,1,.43,1.78,2.45,2.45,0,0,1-1,1.58l-17.32,12.86-22.44-30.21L196.21,202a2.38,2.38,0,0,1,1.81-.44,2.34,2.34,0,0,1,1.6.94,2.28,2.28,0,0,1,.42,1.78A2.41,2.41,0,0,1,199.09,205.86Z"/><polygon class="cls-5" points="67.94 90.21 93.3 104.55 93.3 188.75 67.09 202.6 67.94 90.21"/><polygon class="cls-2" points="69.98 86.85 93.3 100.51 93.3 73.06 69.98 86.85"/><polygon class="cls-5" points="212.45 129.23 235.94 116.13 235.94 197.15 212.45 183.19 212.45 129.23"/><polygon class="cls-5" points="250.57 119.36 267.43 109.45 267.43 129.91 250.57 119.36"/><polygon class="cls-2" points="212.45 124.3 236.62 110.68 246.83 117.49 266.4 106.06 186.75 59.79 186.75 82.94 212.45 97.92 212.45 124.3"/></svg>